<svg width="295" height="26" viewBox="0 0 295 26" fill="none" xmlns="http://www.w3.org/2000/svg">
<style type="text/css">
	.st0{fill:#FFFFFF;}
</style>
<g>
	<path class="st0" d="M1.1,15.2v-3.9H0.1c-0.1,0-0.1,0-0.1-0.1v-0.7c0-0.1,0-0.1,0.1-0.1H3c0.1,0,0.1,0,0.1,0.1v0.7
		c0,0.1,0,0.1-0.1,0.1H2.1v3.8c0,0.1,0,0.1-0.1,0.1H1.2C1.1,15.3,1.1,15.3,1.1,15.2z"/>
	<path class="st0" d="M3.9,15.2v-4.6c0-0.1,0-0.1,0.1-0.1h2.5c0.1,0,0.1,0,0.1,0.1v0.7c0,0.1,0,0.1-0.1,0.1H4.9v1.1h1.5
		c0.1,0,0.1,0,0.1,0.1v0.7c0,0.1,0,0.1-0.1,0.1H4.9v1.1h1.6c0.1,0,0.1,0,0.1,0.1v0.6c0,0.1,0,0.1-0.1,0.1H4
		C4,15.3,3.9,15.3,3.9,15.2z"/>
	<path class="st0" d="M10,14.6v0.7c0,0.1,0,0.1-0.1,0.1H7.6c-0.1,0-0.1,0-0.1-0.1v-4.6c0-0.1,0-0.1,0.1-0.1h0.8c0.1,0,0.1,0,0.1,0.1
		v3.8H10C10,14.5,10,14.5,10,14.6z"/>
	<path class="st0" d="M10.8,15.2v-4.6c0-0.1,0-0.1,0.1-0.1h2.5c0.1,0,0.1,0,0.1,0.1v0.7c0,0.1,0,0.1-0.1,0.1h-1.6v1.1h1.5
		c0.1,0,0.1,0,0.1,0.1v0.7c0,0.1,0,0.1-0.1,0.1h-1.5v1.1h1.6c0.1,0,0.1,0,0.1,0.1v0.6c0,0.1,0,0.1-0.1,0.1h-2.5
		C10.8,15.3,10.8,15.3,10.8,15.2z"/>
	<path class="st0" d="M14.3,15.2v-4.6c0-0.1,0-0.1,0.1-0.1h1.5c1.1,0,1.7,0.6,1.7,1.6c0,0.9-0.6,1.6-1.7,1.6h-0.6v1.6
		c0,0.1,0,0.1-0.1,0.1h-0.8C14.4,15.3,14.3,15.3,14.3,15.2z M15.9,12.8c0.4,0,0.8-0.1,0.8-0.7c0-0.5-0.4-0.7-0.8-0.7h-0.5v1.4
		C15.3,12.8,15.9,12.8,15.9,12.8z"/>
	<path class="st0" d="M22.1,10.6v4.6c0,0.1,0,0.1-0.1,0.1h-0.8c-0.1,0-0.1,0-0.1-0.1v-1.8h-1.8v1.8c0,0.1,0,0.1-0.1,0.1h-0.7
		c-0.1,0-0.1,0-0.1-0.1v-4.6c0-0.1,0-0.1,0.1-0.1h0.8c0.1,0,0.1,0,0.1,0.1v1.9h1.8v-1.9c0-0.1,0-0.1,0.1-0.1H22
		C22,10.5,22.1,10.5,22.1,10.6z"/>
	<path class="st0" d="M22.9,12.9c0-1.4,1.1-2.5,2.5-2.5s2.5,1.1,2.5,2.5c0,1.4-1.1,2.5-2.5,2.5S22.9,14.3,22.9,12.9z M26.9,12.9
		c0-0.9-0.6-1.5-1.5-1.5c-0.8,0-1.5,0.7-1.5,1.5c0,0.9,0.6,1.5,1.5,1.5S26.9,13.8,26.9,12.9z"/>
	<path class="st0" d="M32.5,10.6v4.6c0,0.1,0,0.1-0.1,0.1h-0.9c-0.1,0-0.1,0-0.1-0.1l-1.7-3.2v3.1c0,0.1,0,0.1-0.1,0.1h-0.8
		c-0.1,0-0.1,0-0.1-0.1v-4.6c0-0.1,0-0.1,0.1-0.1h0.9c0.1,0,0.1,0,0.1,0.1l1.7,3.2v-3.1c0-0.1,0-0.1,0.1-0.1h0.8
		C32.5,10.5,32.5,10.5,32.5,10.6z"/>
	<path class="st0" d="M33.5,15.2v-4.6c0-0.1,0-0.1,0.1-0.1h2.5c0.1,0,0.1,0,0.1,0.1v0.7c0,0.1,0,0.1-0.1,0.1h-1.6v1.1H36
		c0.1,0,0.1,0,0.1,0.1v0.7c0,0.1,0,0.1-0.1,0.1h-1.5v1.1H36c0.1,0,0.1,0,0.1,0.1v0.6c0,0.1,0,0.1-0.1,0.1h-2.5
		C33.5,15.3,33.5,15.3,33.5,15.2z"/>
	<path class="st0" d="M41.5,10.6v4.6c0,0.1,0,0.1-0.1,0.1h-0.8c-0.1,0-0.1,0-0.1-0.1v-1.8h-1.8v1.8c0,0.1,0,0.1-0.1,0.1h-0.8
		c-0.1,0-0.1,0-0.1-0.1v-4.6c0-0.1,0-0.1,0.1-0.1h0.8c0.1,0,0.1,0,0.1,0.1v1.9h1.8v-1.9c0-0.1,0-0.1,0.1-0.1h0.8
		C41.4,10.5,41.5,10.5,41.5,10.6z"/>
	<path class="st0" d="M42.3,12.9c0-1.4,1.1-2.5,2.5-2.5c1.4,0,2.5,1.1,2.5,2.5c0,1.4-1.1,2.5-2.5,2.5C43.4,15.4,42.3,14.3,42.3,12.9
		z M46.3,12.9c0-0.9-0.6-1.5-1.5-1.5c-0.8,0-1.5,0.7-1.5,1.5c0,0.9,0.6,1.5,1.5,1.5C45.6,14.5,46.3,13.8,46.3,12.9z"/>
	<path class="st0" d="M48,13.5v-2.9c0-0.1,0-0.1,0.1-0.1h0.8c0.1,0,0.1,0,0.1,0.1v2.9c0,0.6,0.3,1,0.8,1c0.5,0,0.8-0.3,0.8-1v-2.9
		c0-0.1,0-0.1,0.1-0.1h0.8c0.1,0,0.1,0,0.1,0.1v2.9c0,1.3-0.8,1.9-1.8,1.9C48.8,15.4,48,14.8,48,13.5z"/>
	<path class="st0" d="M52.5,14.7c0-0.1,0-0.1,0-0.1l0.4-0.5c0-0.1,0.1-0.1,0.1,0c0.3,0.3,0.6,0.5,1,0.5c0.4,0,0.7-0.2,0.7-0.5
		c0-0.3-0.2-0.4-0.6-0.6l-0.6-0.3c-0.5-0.2-1-0.6-1-1.3c0-0.9,0.7-1.4,1.5-1.4c0.6,0,1,0.2,1.4,0.6c0.1,0.1,0.1,0.1,0,0.2L55,11.7
		c0,0.1-0.1,0.1-0.1,0c-0.3-0.3-0.5-0.4-0.8-0.4c-0.4,0-0.6,0.2-0.6,0.5c0,0.3,0.2,0.4,0.6,0.6l0.5,0.2c0.5,0.2,1.1,0.6,1.1,1.4
		c0,1-0.8,1.4-1.6,1.4C53.3,15.4,52.7,15,52.5,14.7z"/>
	<path class="st0" d="M56.4,15.2v-4.6c0-0.1,0-0.1,0.1-0.1H59c0.1,0,0.1,0,0.1,0.1v0.7c0,0.1,0,0.1-0.1,0.1h-1.6v1.1h1.5
		c0.1,0,0.1,0,0.1,0.1v0.7c0,0.1,0,0.1-0.1,0.1h-1.5v1.1H59c0.1,0,0.1,0,0.1,0.1v0.6c0,0.1,0,0.1-0.1,0.1h-2.5
		C56.5,15.3,56.4,15.3,56.4,15.2z"/>
</g>
</svg>
