<svg width="295" height="25" version="1.1" id="Layer_1" xmlns="http://www.w3.org/2000/svg" xmlns:xlink="http://www.w3.org/1999/xlink" x="0px" y="0px"
	 viewBox="0 0 59.1 5" style="enable-background:new 0 0 59.1 5;" xml:space="preserve">
<style type="text/css">
	.st0{fill:#FFFFFF;}
</style>
<g>
	<path class="st0" d="M1,4.8V1H0.1C0.1,1,0,0.9,0,0.8V0.2c0-0.1,0-0.1,0.1-0.1H3c0.1,0,0.1,0,0.1,0.1v0.7C3.1,0.9,3.1,1,3,1H2v3.8
		c0,0.1,0,0.1-0.1,0.1H1.2C1.1,4.9,1,4.9,1,4.8z"/>
	<path class="st0" d="M3.9,4.8V0.2c0-0.1,0-0.1,0.1-0.1h2.5c0.1,0,0.1,0,0.1,0.1v0.7c0,0.1,0,0.1-0.1,0.1H4.9V2h1.5
		c0.1,0,0.1,0,0.1,0.1v0.7c0,0.1,0,0.1-0.1,0.1H4.9v1.1h1.6c0.1,0,0.1,0,0.1,0.1v0.6c0,0.1,0,0.1-0.1,0.1H4C3.9,4.9,3.9,4.9,3.9,4.8
		z"/>
	<path class="st0" d="M10,4.1v0.7c0,0.1,0,0.1-0.1,0.1H7.5c-0.1,0-0.1,0-0.1-0.1V0.2c0-0.1,0-0.1,0.1-0.1h0.8c0.1,0,0.1,0,0.1,0.1V4
		h1.5C10,4,10,4.1,10,4.1z"/>
	<path class="st0" d="M10.8,4.8V0.2c0-0.1,0-0.1,0.1-0.1h2.5c0.1,0,0.1,0,0.1,0.1v0.7c0,0.1,0,0.1-0.1,0.1h-1.6V2h1.5
		c0.1,0,0.1,0,0.1,0.1v0.7c0,0.1,0,0.1-0.1,0.1h-1.5v1.1h1.6c0.1,0,0.1,0,0.1,0.1v0.6c0,0.1,0,0.1-0.1,0.1h-2.5
		C10.8,4.9,10.8,4.9,10.8,4.8z"/>
	<path class="st0" d="M14.3,4.8V0.2c0-0.1,0-0.1,0.1-0.1h1.5c1.1,0,1.7,0.6,1.7,1.6S17,3.2,15.9,3.2h-0.6v1.6c0,0.1,0,0.1-0.1,0.1
		h-0.8C14.3,4.9,14.3,4.9,14.3,4.8z M15.8,2.3c0.4,0,0.8-0.1,0.8-0.7S16.3,1,15.8,1h-0.5v1.4C15.3,2.3,15.8,2.3,15.8,2.3z"/>
	<path class="st0" d="M22,0.2v4.6c0,0.1,0,0.1-0.1,0.1h-0.8c-0.1,0-0.1,0-0.1-0.1V3h-1.8v1.8c0,0.1,0,0.1-0.1,0.1h-0.7
		c-0.1,0-0.1,0-0.1-0.1V0.2c0-0.1,0-0.1,0.1-0.1h0.8c0.1,0,0.1,0,0.1,0.1v1.9h1.8V0.2c0-0.1,0-0.1,0.1-0.1H22C22,0.1,22,0.1,22,0.2z
		"/>
	<path class="st0" d="M22.9,2.5C22.9,1.1,24,0,25.3,0c1.4,0,2.5,1.1,2.5,2.5c0,1.4-1.1,2.5-2.5,2.5C24,5,22.9,3.9,22.9,2.5z
		 M26.8,2.5c0-0.9-0.6-1.5-1.5-1.5c-0.8,0-1.5,0.7-1.5,1.5c0,0.9,0.6,1.5,1.5,1.5C26.2,4,26.8,3.4,26.8,2.5z"/>
	<path class="st0" d="M32.5,0.2v4.6c0,0.1,0,0.1-0.1,0.1h-0.9c-0.1,0-0.1,0-0.1-0.1l-1.7-3.2v3.1c0,0.1,0,0.1-0.1,0.1h-0.8
		c-0.1,0-0.1,0-0.1-0.1V0.2c0-0.1,0-0.1,0.1-0.1h0.9c0.1,0,0.1,0,0.1,0.1l1.7,3.2V0.2c0-0.1,0-0.1,0.1-0.1h0.8
		C32.5,0.1,32.5,0.1,32.5,0.2z"/>
	<path class="st0" d="M33.5,4.8V0.2c0-0.1,0-0.1,0.1-0.1H36c0.1,0,0.1,0,0.1,0.1v0.7c0,0.1,0,0.1-0.1,0.1h-1.6V2h1.5
		C36,2,36,2.1,36,2.1v0.7c0,0.1,0,0.1-0.1,0.1h-1.5v1.1H36c0.1,0,0.1,0,0.1,0.1v0.6c0,0.1,0,0.1-0.1,0.1h-2.5
		C33.5,4.9,33.5,4.9,33.5,4.8z"/>
	<path class="st0" d="M41.4,0.2v4.6c0,0.1,0,0.1-0.1,0.1h-0.8c-0.1,0-0.1,0-0.1-0.1V3h-1.8v1.8c0,0.1,0,0.1-0.1,0.1h-0.8
		c-0.1,0-0.1,0-0.1-0.1V0.2c0-0.1,0-0.1,0.1-0.1h0.8c0.1,0,0.1,0,0.1,0.1v1.9h1.8V0.2c0-0.1,0-0.1,0.1-0.1h0.8
		C41.4,0.1,41.4,0.1,41.4,0.2z"/>
	<path class="st0" d="M42.2,2.5c0-1.4,1.1-2.5,2.5-2.5c1.4,0,2.5,1.1,2.5,2.5c0,1.4-1.1,2.5-2.5,2.5C43.4,5,42.2,3.9,42.2,2.5z
		 M46.2,2.5c0-0.9-0.6-1.5-1.5-1.5c-0.8,0-1.5,0.7-1.5,1.5c0,0.9,0.6,1.5,1.5,1.5S46.2,3.4,46.2,2.5z"/>
	<path class="st0" d="M48,3.1V0.2c0-0.1,0-0.1,0.1-0.1h0.8c0.1,0,0.1,0,0.1,0.1v2.9c0,0.6,0.3,1,0.8,1c0.5,0,0.8-0.3,0.8-1V0.2
		c0-0.1,0-0.1,0.1-0.1h0.8c0.1,0,0.1,0,0.1,0.1v2.9c0,1.3-0.8,1.9-1.8,1.9C48.8,5,48,4.3,48,3.1z"/>
	<path class="st0" d="M52.4,4.2c0-0.1,0-0.1,0-0.1l0.4-0.5c0-0.1,0.1-0.1,0.1,0c0.3,0.3,0.6,0.5,1,0.5c0.4,0,0.7-0.2,0.7-0.5
		c0-0.3-0.2-0.4-0.6-0.6l-0.6-0.3c-0.5-0.2-1-0.6-1-1.3C52.5,0.5,53.2,0,54,0c0.6,0,1,0.2,1.4,0.6c0.1,0.1,0.1,0.1,0,0.2L55,1.3
		c0,0.1-0.1,0.1-0.1,0C54.6,1,54.3,0.9,54,0.9c-0.4,0-0.6,0.2-0.6,0.5c0,0.3,0.2,0.4,0.6,0.6l0.5,0.2c0.5,0.2,1.1,0.6,1.1,1.4
		c0,1-0.8,1.4-1.6,1.4C53.2,5,52.7,4.6,52.4,4.2z"/>
	<path class="st0" d="M56.4,4.8V0.2c0-0.1,0-0.1,0.1-0.1H59c0.1,0,0.1,0,0.1,0.1v0.7C59.1,0.9,59,1,59,1h-1.6V2h1.5
		c0.1,0,0.1,0,0.1,0.1v0.7c0,0.1,0,0.1-0.1,0.1h-1.5v1.1H59c0.1,0,0.1,0,0.1,0.1v0.6c0,0.1,0,0.1-0.1,0.1h-2.5
		C56.4,4.9,56.4,4.9,56.4,4.8z"/>
</g>
</svg>
